<svg id="Layer_1" data-name="Layer 1" xmlns="http://www.w3.org/2000/svg" viewBox="0 0 216 144"><defs><style>.cls-1{fill:#455eab;}</style></defs><g id="OBX_web_Logo_Blue" data-name="OBX web Logo Blue"><g id="Group_1" data-name="Group 1"><path id="Path_1" data-name="Path 1" class="cls-1" d="M11.39,114.63a12,12,0,0,1-4.83-4.73,13.39,13.39,0,0,1,0-13.54,13.16,13.16,0,0,1,4.83-4.51,13.33,13.33,0,0,1,6.67-1.59,13.32,13.32,0,0,1,6.67,1.58,12.13,12.13,0,0,1,4.83,4.75,13.37,13.37,0,0,1,0,13.53,12,12,0,0,1-4.83,4.74,13.22,13.22,0,0,1-6.67,1.58A15.21,15.21,0,0,1,11.39,114.63Zm11.5-6.09a8.9,8.9,0,0,0,0-10.83,6.49,6.49,0,0,0-5.06-2,6.81,6.81,0,0,0-5.06,2,8.87,8.87,0,0,0,0,10.83,7.34,7.34,0,0,0,5.29,2,6,6,0,0,0,4.83-2Z"/><path id="Path_2" data-name="Path 2" class="cls-1" d="M43.59,96.36a9.82,9.82,0,0,1,3.69-.91,8.79,8.79,0,0,1,7.82,5,10.48,10.48,0,0,1,1.15,5.41,13.32,13.32,0,0,1-1.15,5.42,9.89,9.89,0,0,1-3.22,3.61,8.35,8.35,0,0,1-4.6,1.35,6.31,6.31,0,0,1-3.68-.9,6,6,0,0,1-2.53-2.26v12.64H34.85V95.91h6.21v2.7A6.12,6.12,0,0,1,43.59,96.36Zm5.06,5.86a4.51,4.51,0,0,0-6.29-.14l-.15.14a5.41,5.41,0,0,0,0,7.22,4.51,4.51,0,0,0,6.3.15l.14-.15A5.41,5.41,0,0,0,48.65,102.22Z"/><path id="Path_3" data-name="Path 3" class="cls-1" d="M71.19,110.8V116H68a7.47,7.47,0,0,1-5.29-1.58c-1.38-1.13-1.84-2.94-1.84-5.42v-8.12H58.31V95.68h2.53v-5h6.21v5h4.14v5.19H67.05V109a1.61,1.61,0,0,0,1.39,1.8,1.42,1.42,0,0,0,.46,0Z"/><path id="Path_4" data-name="Path 4" class="cls-1" d="M75.11,92.75a3.25,3.25,0,0,1-.33-4.65,3.34,3.34,0,0,1,.33-.32,4.68,4.68,0,0,1,5.52,0A3.26,3.26,0,0,1,81,92.42q-.17.18-.33.33a4.68,4.68,0,0,1-5.52,0Zm6,3.16v20.3H74.88V95.91Z"/><path id="Path_5" data-name="Path 5" class="cls-1" d="M89.6,115.09a9.39,9.39,0,0,1-3.68-3.61,11.33,11.33,0,0,1,0-10.84A10,10,0,0,1,89.83,97a12,12,0,0,1,11,0,10,10,0,0,1,3.91,3.61,11.33,11.33,0,0,1,0,10.84,10,10,0,0,1-3.91,3.61,11.17,11.17,0,0,1-5.52,1.35A10.31,10.31,0,0,1,89.6,115.09Zm8.28-5.42a4.7,4.7,0,0,0,1.38-3.61,6.36,6.36,0,0,0-1.15-3.84,4.1,4.1,0,0,0-3-1.35,3.77,3.77,0,0,0-3,1.35A4.85,4.85,0,0,0,91,106.06a5.25,5.25,0,0,0,1.15,3.61,4.07,4.07,0,0,0,3,1.35,3.6,3.6,0,0,0,2.76-1.35Z"/><path id="Path_6" data-name="Path 6" class="cls-1" d="M127.32,97.94a9,9,0,0,1,2.07,6.32V116h-6.21V104.93a4.41,4.41,0,0,0-1.15-3.16,3.93,3.93,0,0,0-5.5,0h0a4.41,4.41,0,0,0-1.15,3.16V116h-6.21V95.68h6.21v2.93a7.24,7.24,0,0,1,2.53-2,9.64,9.64,0,0,1,3.68-.67A6.75,6.75,0,0,1,127.32,97.94Z"/><path id="Path_7" data-name="Path 7" class="cls-1" d="M153.09,105.16a6.1,6.1,0,0,1,1.38,3.83,5.8,5.8,0,0,1-2.3,5,10.62,10.62,0,0,1-6.22,1.8H134v-25h11.73a10.62,10.62,0,0,1,6.22,1.8,5.4,5.4,0,0,1,2.3,4.74,5.74,5.74,0,0,1-1.15,3.61,10.69,10.69,0,0,1-3.69,2.25A5.5,5.5,0,0,1,153.09,105.16ZM140,100.87h4.14a3.12,3.12,0,0,0,2.3-.68,2.84,2.84,0,0,0,.93-2,2.18,2.18,0,0,0-.93-2,3.48,3.48,0,0,0-2.3-.68H140Zm7.13,9.47a2.7,2.7,0,0,0,.21-3.86l-.21-.2a4.16,4.16,0,0,0-2.53-.67H140v5.64h4.6a5.33,5.33,0,0,0,2.53-.9Z"/><path id="Path_8" data-name="Path 8" class="cls-1" d="M164.36,89.36v26.85h-6.21V89.36Z"/><path id="Path_9" data-name="Path 9" class="cls-1" d="M172.87,115.09a9.39,9.39,0,0,1-3.68-3.61,11.33,11.33,0,0,1,0-10.84A10,10,0,0,1,173.1,97a12,12,0,0,1,11,0,10,10,0,0,1,3.91,3.61,11.33,11.33,0,0,1,0,10.84,10,10,0,0,1-3.91,3.61,11.17,11.17,0,0,1-5.52,1.35A11.48,11.48,0,0,1,172.87,115.09Zm8.51-5.42a4.7,4.7,0,0,0,1.38-3.61,5.25,5.25,0,0,0-1.15-3.61,4.06,4.06,0,0,0-3-1.35,3.71,3.71,0,0,0-3,1.35,4.85,4.85,0,0,0-1.15,3.84,5.27,5.27,0,0,0,1.15,3.61,4.11,4.11,0,0,0,3,1.35,5.81,5.81,0,0,0,2.76-1.58Z"/><path id="Path_10" data-name="Path 10" class="cls-1" d="M204.61,116l-3.91-5.64L197.48,116h-6.9l6.67-10.38-6.9-9.93h7.13l3.91,5.64,3.22-5.64h6.9l-6.9,10.15L211.74,116Z"/></g><g id="Group_3" data-name="Group 3"><g id="Group_2" data-name="Group 2"><path id="Path_11" data-name="Path 11" class="cls-1" d="M4.49,28.88c0-6.09.92-10.38,2.76-12.41s5.52-3.61,10.81-3.61h40c5.29,0,9,1.13,10.82,3.39s2.76,6.54,2.76,12.41V64.09c0,6.09-.92,10.38-2.76,12.41-1.85,2.26-5.53,3.38-10.82,3.38H17.83c-5.29,0-9-1.13-10.81-3.38S4.26,70,4.26,63.86v-35ZM23.8,67.7H51.18c3.68,0,6.9-3.61,6.9-8.35V34.52c0-4.51-3-8.34-6.9-8.34H23.81c-3.68,0-6.9,3.61-6.9,8.34V59.35c.22,4.74,3.22,8.35,6.9,8.35Z"/><path id="Path_12" data-name="Path 12" class="cls-1" d="M79.25,75.37V17.6c0-2.48,1.84-4.74,3.91-4.74h42.55s7.36,1.58,9.2,3.61,2.76,5.42,2.76,9.93v8.12a10.67,10.67,0,0,1-2.53,7.68h-.23a5.66,5.66,0,0,0,0,7c.23.23.46.45.46.68,1.84,2.48,3.22,8.8,3.22,8.8V67c0,4.51-1.38,7.67-3.91,9.93-2.76,2.26-6.67,3.16-12,3.16H82.93C80.86,80.11,79.25,78.08,79.25,75.37ZM119.5,24.15H94.66c-2.07,0-3.68,2-3.68,4.73v6.77c0,2.71,1.61,4.74,3.68,4.74H119.5a7.5,7.5,0,0,0,4.6-1.13,4.55,4.55,0,0,0,1.15-3.84V29.1a4.86,4.86,0,0,0-1.15-3.61A6.54,6.54,0,0,0,119.5,24.15Zm.69,27.53H95.35c-2.07,0-3.68,2-3.68,4.73v7.68c0,2.48,1.61,4.74,3.68,4.74h24.84A6.84,6.84,0,0,0,125,67.47c.92-.9,1.15-2.48,1.15-4.74v-5A7.16,7.16,0,0,0,125,53.25C124.1,52.13,122.49,51.68,120.19,51.68Z"/><path id="Path_13" data-name="Path 13" class="cls-1" d="M144.58,78.3l35.88-47.39c1.38-1.8-12.88,13.77-14.26,12l-21.85-27.3a1.49,1.49,0,0,1,.07-2.13l.16-.13c0-.22.46-.45.69-.45h13.34a8.73,8.73,0,0,1,.92.68l13.11,17.37A4.8,4.8,0,0,0,179.08,32c.46-.22.69-.67,1.15-1.13l12.42-17.14c.23-.23.92.22.92.22h11a1.32,1.32,0,0,1,1.15,1.81c0,.22-.23.45-.46.67L186.21,41.29a4.7,4.7,0,0,0,.23,5.65l24.61,30.23a1.49,1.49,0,0,1-.1,2.15.69.69,0,0,1-.13.11c-.23.23-.46.45-.69.45H196.56s-.69,0-.92-.22L179.31,60.25a3.76,3.76,0,0,0-5.19-.75l-.1.07a1.78,1.78,0,0,0-.92.91l-14.95,19a13.52,13.52,0,0,0-.92,1.36H145.5A1.32,1.32,0,0,1,144.35,79,.79.79,0,0,1,144.58,78.3Z"/></g></g></g></svg>